Wowser! Disney's Inspector Gadget turbocharges to life in a wild and quirky adventure comedy with a thousand moving parts!

During a daring rescue attempt, John Brown (Matthew Broderick), a naïve and clueless security guard, experiences the wrath of the evil Dr Claw (Rupert Everett) and is left clinging to life. Jumping at the chance to put her robotics expertise to the test, the brilliant Dr Brenda Bradford (Joely Fischer) transforms him into Inspector Gadget - the ultimate crime-fighting tool! And Gadget is going to need every techno-trick up his cyber-sleeve to defeat the ruthless Claw - before Claw reduces our hero to spare parts and wreaks havoc on the world!

Nonstop action, seamless special effects and a gazillion gizmos make Inspector Gadget a hilarious techno-thrill ride the whole family will watch over and over.



Format                           : MPEG-4
Format profile                   : Base Media / Version 2
Codec ID                         : mp42
File size                        : 800 MiB
Duration                         : 1h 15mn
Overall bit rate                 : 1 487 Kbps
Encoded date                     : UTC 2010-01-03 09:19:39
Tagged date                      : UTC 2010-01-03 12:58:34
Writing application              : HandBrake 0.9.3 2008112300

Video
ID                               : 1
Format                           : AVC
Format/Info                      : Advanced Video Codec
Format profile                   : Main@L4.0
Format settings, CABAC           : Yes
Format settings, ReFrames        : 3 frames
Codec ID                         : avc1
Codec ID/Info                    : Advanced Video Coding
Duration                         : 1h 15mn
Bit rate mode                    : Variable
Bit rate                         : 1 323 Kbps
Width                            : 718 pixels
Height                           : 554 pixels
Display aspect ratio             : 16:9
Frame rate mode                  : Variable
Frame rate                       : 25.000 fps
Minimum frame rate               : 12.500 fps
Maximum frame rate               : 25.000 fps
Resolution                       : 24 bits
Colorimetry                      : 4:2:0
Scan type                        : Progressive
Bits/(Pixel*Frame)               : 0.133
Stream size                      : 711 MiB (89%)
Writing library                  : x264 core 65


Audio
ID                               : 2
Format                           : AAC
Format/Info                      : Advanced Audio Codec
Format version                   : Version 4
Format profile                   : LC
Format settings, SBR             : No
Codec ID                         : 40
Duration                         : 1h 15mn
Bit rate mode                    : Variable
Bit rate                         : 160 Kbps
Maximum bit rate                 : 196 Kbps
Channel(s)                       : 2 channels
Channel positions                : L R
Sampling rate                    : 48.0 KHz
Resolution                       : 16 bits
Stream size                      : 86.0 MiB (11%)
Language                         : English
Encoded date                     : UTC 2010-01-03 09:19:39
Tagged date                      : UTC 2010-01-03 12:58:32

